/* $Id: backstop.xbm,v 1.1.1.1 2006/08/21 11:20:00 harry Exp $ */
#define backstop_width 3
#define backstop_height 3
static unsigned char backstop_bits[] = {
   0x00, 0x00, 0x01 };
