/* $Id: low_res_limit.xbm,v 1.1.1.1 2006/08/21 11:20:00 harry Exp $ */
#define low_res_limit_width 3
#define low_res_limit_height 3
static unsigned char low_res_limit_bits[] = {
   0x00, 0x04, 0x00 };
