/* $Id: mask.xbm,v 1.1.1.1 2006/08/21 11:20:00 harry Exp $ */
#define mask_width 3
#define mask_height 3
static unsigned char mask_bits[] = {
   0x00, 0x00, 0x04 };
