/* $Id: breaker_mask.xbm,v 1.1.1.1 2006/08/21 11:19:59 harry Exp $ */
#define breaker_mask_width 9
#define breaker_mask_height 9
static unsigned char breaker_mask_bits[] = {
   0xf8, 0x01, 0xf8, 0x01, 0xfc, 0x00, 0xfc, 0x00, 0x7c, 0x00, 0x7e, 0x00,
   0x7e, 0x00, 0x3f, 0x00, 0x3f, 0x00 };
