/* $Id: breaker.xbm,v 1.1.1.1 2006/08/21 11:19:59 harry Exp $ */
#define breaker_width 9
#define breaker_height 9
static unsigned char breaker_bits[] = {
   0x08, 0x01, 0x08, 0x01, 0x84, 0x00, 0x84, 0x00, 0x44, 0x00, 0x42, 0x00,
   0x42, 0x00, 0x21, 0x00, 0x21, 0x00 };
