/* $Id: eraser_mask.xbm,v 1.1.1.1 2006/08/21 11:19:59 harry Exp $ */
#define eraser_mask_width 16
#define eraser_mask_height 16
#define eraser_mask_x_hot 0
#define eraser_mask_y_hot 0
static unsigned char eraser_mask_bits[] = {
   0x1f, 0x00, 0xcf, 0x7f, 0xe7, 0xff, 0xe3, 0xff, 0xf1, 0xff, 0xf0, 0xff,
   0xf8, 0xff, 0xf8, 0x7f, 0xfc, 0x7f, 0xfc, 0x3f, 0xfe, 0x3f, 0xfe, 0x1f,
   0xfe, 0x1f, 0xfe, 0x0f, 0xfe, 0x0f, 0xfc, 0x07 };
