/* $Id: eraser.xbm,v 1.1.1.1 2006/08/21 11:19:59 harry Exp $ */
#define eraser_width 16
#define eraser_height 16
#define eraser_x_hot 0
#define eraser_y_hot 0
static unsigned char eraser_bits[] = {
   0x1f, 0x00, 0xcf, 0x7f, 0x27, 0xc0, 0x23, 0xa0, 0x11, 0xa0, 0x10, 0x90,
   0x08, 0x90, 0x08, 0x48, 0x04, 0x48, 0x04, 0x24, 0x02, 0x24, 0xfe, 0x13,
   0x02, 0x12, 0x02, 0x0a, 0x02, 0x0e, 0xfc, 0x07 };
