/* $Id: high_res_limit.xbm,v 1.1.1.1 2006/08/21 11:19:59 harry Exp $ */
#define high_res_limit_width 5
#define high_res_limit_height 5
static unsigned char high_res_limit_bits[] = {
   0x04, 0x04, 0x04, 0x04, 0x04 };
