/* $Id: mask_mask.xbm,v 1.1.1.1 2006/08/21 11:19:59 harry Exp $ */
#define mask_mask_width 16
#define mask_mask_height 16
#define mask_mask_x_hot 0
#define mask_mask_y_hot 0
static unsigned char mask_mask_bits[] = {
   0x3f, 0x00, 0x3f, 0x00, 0xff, 0xff, 0xff, 0xff, 0xff, 0xff, 0xff, 0xff,
   0xfc, 0xff, 0xfc, 0xff, 0xfc, 0xff, 0xfc, 0xff, 0xfc, 0xff, 0xf8, 0xff,
   0xf8, 0xff, 0xf0, 0x7f, 0xf0, 0x7f, 0xe0, 0x3f };
