/* $Id: mask_cursor.xbm,v 1.1.1.1 2006/08/21 11:19:59 harry Exp $ */
#define mask_width 16
#define mask_height 16
#define mask_x_hot 0
#define mask_y_hot 0
static unsigned char mask_bits[] = {
   0x00, 0x00, 0x1e, 0x00, 0x0e, 0x00, 0xfe, 0xff, 0xfa, 0xff, 0x18, 0xc7,
   0x08, 0x82, 0xe8, 0xba, 0xf8, 0xff, 0xf8, 0xff, 0xb0, 0x6f, 0x70, 0x70,
   0xe0, 0x38, 0xe0, 0x3f, 0xc0, 0x1f, 0x80, 0x0f };
