/* $Id: min_search_radius.xbm,v 1.1.1.1 2006/08/21 11:19:59 harry Exp $ */
#define min_search_radius_width 5
#define min_search_radius_height 5
static unsigned char min_search_radius_bits[] = {
   0x10, 0x08, 0x04, 0x02, 0x01 };
