/* $Id: mosflm.xbm,v 1.1.1.1 2006/08/21 11:19:59 harry Exp $ */
#define mosflm_width 16
#define mosflm_height 16
static unsigned char mosflm_bits[] = {
   0x00, 0x00, 0xfe, 0x7f, 0x02, 0x40, 0x02, 0x40, 0x02, 0x40, 0xfa, 0x5f,
   0xfa, 0x5f, 0x9a, 0x59, 0x9a, 0x59, 0x9a, 0x59, 0x9a, 0x59, 0x02, 0x40,
   0x02, 0x40, 0x02, 0x40, 0xfe, 0x7f, 0x00, 0x00};
