/* $Id: mosflm_inverse.xbm,v 1.1.1.1 2006/08/21 11:19:59 harry Exp $ */
#define mosflm_inverse_width 16
#define mosflm_inverse_height 16
static unsigned char mosflm_inverse_bits[] = {
   0xff, 0xff, 0x01, 0x80, 0xfd, 0xbf, 0xfd, 0xbf, 0xfd, 0xbf, 0x05, 0xa0,
   0x05, 0xa0, 0x65, 0xa6, 0x65, 0xa6, 0x65, 0xa6, 0x65, 0xa6, 0xfd, 0xbf,
   0xfd, 0xbf, 0xfd, 0xbf, 0x01, 0x80, 0xff, 0xff };
