#define question_arrow_width 16
#define question_arrow_height 16
#define question_arrow_x_hot 8
#define question_arrow_y_hot 15
static unsigned char question_arrow_bits[] = {
   0x00, 0x00, 0xe0, 0x03, 0xf0, 0x07, 0x38, 0x0e, 0x18, 0x0c, 0x38, 0x0c,
   0x30, 0x0e, 0x00, 0x07, 0xc0, 0x03, 0xc0, 0x01, 0x40, 0x01, 0x40, 0x01,
   0x70, 0x07, 0x60, 0x03, 0xc0, 0x01, 0x80, 0x00 };
