/* $Id: triangle_down.xbm,v 1.1.1.1 2006/08/21 11:19:59 harry Exp $ */
/* Created with The GIMP */
#define triangle_down_width 7
#define triangle_down_height 7
static unsigned char triangle_down_bits[] = {
   0x7f, 0x7f, 0x3e, 0x3e, 0x1c, 0x1c, 0x08 };
