/* $Id: zoom_mask.xbm,v 1.1.1.1 2006/08/21 11:19:58 harry Exp $ */
#define zoom_mask_width 16
#define zoom_mask_height 16
#define zoom_mask_x_hot 0
#define zoom_mask_y_hot 0
static unsigned char zoom_mask_bits[] = {
   0xbf, 0x1f, 0xff, 0x7f, 0xff, 0x7f, 0xff, 0xf0, 0x7f, 0xe6, 0x77, 0xe3,
   0x70, 0xe1, 0x70, 0xe0, 0xf0, 0xf0, 0xf8, 0x7f, 0xfc, 0x7f, 0xfe, 0x1f,
   0x7f, 0x00, 0x3f, 0x00, 0x1f, 0x00, 0x0f, 0x00 };
